PathFileType	4	(X/Y/Z)	/Users/niels/Desktop/University/Third Semester/Perception and Action/Exam/Gymnastics Motion Tracking/Code for Gym Tracking/Analyzed Data/Webcam_Backflip/id6_3_baseline_Sports2D/id6_3_baseline_Sports2D_px_person00.trc
DataRate	CameraRate	NumFrames	NumMarkers	Units	OrigDataRate	OrigDataStartFrame	OrigNumFrames
29.8125	29.8125	12	22	m	29.8125	80	160
Frame#	Time	Hip			RHip			RKnee			RAnkle			RBigToe			RSmallToe			RHeel			LHip			LKnee			LAnkle			LBigToe			LSmallToe			LHeel			Neck			Head			Nose			RShoulder			RElbow			RWrist			LShoulder			LElbow			LWrist		
		X1	Y1	Z1	X2	Y2	Z2	X3	Y3	Z3	X4	Y4	Z4	X5	Y5	Z5	X6	Y6	Z6	X7	Y7	Z7	X8	Y8	Z8	X9	Y9	Z9	X10	Y10	Z10	X11	Y11	Z11	X12	Y12	Z12	X13	Y13	Z13	X14	Y14	Z14	X15	Y15	Z15	X16	Y16	Z16	X17	Y17	Z17	X18	Y18	Z18	X19	Y19	Z19	X20	Y20	Z20	X21	Y21	Z21	X22	Y22	Z22
80	2.683438155136268	0.8358177204634624	-0.5447997394080927	0.0	0.8339078645779812	-0.5443675918607171	0.0	0.8463881979740357	-0.6494784248541988	0.0	0.8152187705816972	-0.7446883401516263	0.0	0.8443939728627425	-0.7712003796764126	0.0	0.8358830151165354	-0.7730432553404123	0.0	0.8016684466372834	-0.7564908247096145	0.0	0.8407363968181246	-0.5450589923016811	0.0	0.847839130922323	-0.6491982421765132	0.0	0.8220800956466148	-0.7402517847627932	0.0	0.8511499000962258	-0.7642268992413832	0.0	0.8469374987133956	-0.7612379045069066	0.0	0.8063745583595147	-0.7511749074692654	0.0	0.9457804641321025	-0.4888603554018161	0.0	1.0133573139221803	-0.48558780352542946	0.0	0.9835687228104765	-0.5052319199222826	0.0	0.9319761233894496	-0.49028028809283064	0.0	0.8929334461566963	-0.5444699881061537	0.0	0.9161202445176829	-0.5981207060303924	0.0	0.9350724234498777	-0.4844147735902312	0.0	0.9061125901374341	-0.5454203455888477	0.0	0.9350012412141854	-0.5858191878842289	0.0
81	2.716981132075471	0.8337079076064278	-0.5875215349438282	0.0	0.832380297499177	-0.5882825043565726	0.0	0.8488442046711623	-0.6911851730611839	0.0	0.8241794979612339	-0.7910434897968208	0.0	0.8538004031722798	-0.8103222933048568	0.0	0.8446283609664166	-0.8123783402853119	0.0	0.8115405220160776	-0.8016510827856016	0.0	0.838156576181704	-0.5884396905009195	0.0	0.8497188750751811	-0.6905034506305948	0.0	0.8299041542301715	-0.7864551105647373	0.0	0.8601747270514424	-0.8047084943718189	0.0	0.8547633603116378	-0.8013775444822184	0.0	0.8150193228273755	-0.7967472676263306	0.0	0.9278738331921976	-0.5039565464865474	0.0	0.9918007677650666	-0.4890645826805444	0.0	0.9664882460851746	-0.5140694158684975	0.0	0.9143367036731469	-0.5078746766982605	0.0	0.88593274981487	-0.5631156889090676	0.0	0.9212259055919159	-0.6073304857777474	0.0	0.9161789966779063	-0.5026287809496345	0.0	0.8985719665220452	-0.5638904744290402	0.0	0.9388400056814341	-0.595832483529975	0.0
82	2.7505241090146746	0.8330015156751527	-0.6243453816838745	0.0	0.8318288330771557	-0.6262843132370868	0.0	0.8505467908429626	-0.726762931273195	0.0	0.8291080560553933	-0.8280082531425245	0.0	0.8585396019095083	-0.8414173409195695	0.0	0.8481253532863554	-0.8431969390116301	0.0	0.8173088510558895	-0.8368340187590143	0.0	0.8371926197624463	-0.6260808135303091	0.0	0.8515444078332185	-0.7257538162264378	0.0	0.8345217889957516	-0.8236945441856037	0.0	0.8655146570656876	-0.8372326566822736	0.0	0.8590105215135628	-0.833147695241401	0.0	0.8202489542135233	-0.8328617508464117	0.0	0.9089270329211487	-0.5194648280439548	0.0	0.9678493848398304	-0.4931438294001353	0.0	0.947556945621855	-0.5232200998104299	0.0	0.8959125357273489	-0.5255361423544005	0.0	0.8793016210820706	-0.5790364157790316	0.0	0.9253343384178772	-0.6104781508302672	0.0	0.8965835954698514	-0.5214455755804582	0.0	0.8909783727256305	-0.57950476788532	0.0	0.940006535947502	-0.6007701246178091	0.0
83	2.784067085953878	0.832212573784608	-0.6513248637028195	0.0	0.8308443367122968	-0.6541666817544212	0.0	0.8510569686527357	-0.7520761479835073	0.0	0.8308385487308628	-0.852739844757601	0.0	0.860449557923807	-0.8624656118211249	0.0	0.8485152065294281	-0.8638667752431508	0.0	0.8197935276980854	-0.860438315042717	0.0	0.8362731123344447	-0.6537621902068882	0.0	0.8530145554533409	-0.7507860449854851	0.0	0.8366475479132601	-0.8486066240078731	0.0	0.8684787211953524	-0.8594809890028813	0.0	0.8609707032433767	-0.8543284220423533	0.0	0.8228864915079936	-0.8573885583972721	0.0	0.8908222315815132	-0.5320586189690704	0.0	0.9446231418240777	-0.49571322802193934	0.0	0.9290248501117544	-0.53016863999064	0.0	0.878590625152846	-0.539814308499288	0.0	0.8745669890080157	-0.5899659790894579	0.0	0.9288250152898733	-0.6068449967980628	0.0	0.8780537147763227	-0.53688567176811	0.0	0.8839801321080568	-0.5898616063867302	0.0	0.9387348221958348	-0.5997039710988178	0.0
84	2.817610062893081	0.8301179600455773	-0.6654962435021348	0.0	0.8283147705195202	-0.6688203490390893	0.0	0.8504000958471863	-0.7640846752779855	0.0	0.830726480998847	-0.86320866916625	0.0	0.8611077067570495	-0.8715698768263194	0.0	0.848072438198513	-0.872806809790574	0.0	0.8203492814426091	-0.8709069132584942	0.0	0.8341555214449151	-0.6682993982016294	0.0	0.854114683738563	-0.7625166960455898	0.0	0.837505581766943	-0.8587244404010179	0.0	0.87019555921518	-0.8691544388530195	0.0	0.861973697019023	-0.8629276695139501	0.0	0.8244011223357439	-0.868228964724547	0.0	0.875099594699093	-0.5381978025654366	0.0	0.9248637371969222	-0.49441992546802854	0.0	0.91277351551133	-0.5320765616062184	0.0	0.8639000466784098	-0.547093068156013	0.0	0.8721882137190936	-0.5937081357948418	0.0	0.9313653360924348	-0.5962335398383544	0.0	0.8621231759606343	-0.5448683859396939	0.0	0.8783085625741217	-0.5924530345874198	0.0	0.9359821715349553	-0.5916864464708884	0.0
85	2.8511530398322846	0.826164070062332	-0.6656111354041321	0.0	0.8237409905927485	-0.6690194710135698	0.0	0.8489281391656187	-0.761761707403316	0.0	0.8299653265309713	-0.8593238322833556	0.0	0.8614966981075636	-0.8678797670427838	0.0	0.8484321396593796	-0.8692948075431816	0.0	0.8201891489388077	-0.8677151917832823	0.0	0.8303010157887412	-0.6683725085919112	0.0	0.8548519658874889	-0.7599055418948607	0.0	0.8380703327527116	-0.8539352635428565	0.0	0.8715184322543125	-0.8652370467105415	0.0	0.8631016650174737	-0.8585126862533162	0.0	0.8258369678093123	-0.8646012902974863	0.0	0.8625558362185761	-0.5351793184230179	0.0	0.9101316871003028	-0.48711141633158134	0.0	0.8998197944183292	-0.5265453416449122	0.0	0.8525523160512205	-0.5446828080932667	0.0	0.8714376391647721	-0.5889646206576491	0.0	0.9323578928768759	-0.5792972732072615	0.0	0.849706367794023	-0.5425393911488885	0.0	0.8743525611066726	-0.5857044180799261	0.0	0.9327344730433049	-0.5763760921620202	0.0
86	2.884696016771488	0.8204478960885692	-0.6524622248343798	0.0	0.8172696614891447	-0.655707552814891	0.0	0.8471622573834916	-0.7462689770981988	0.0	0.8293848401038292	-0.8429589576229173	0.0	0.8623275159429726	-0.8523021897723878	0.0	0.8503415491277588	-0.8541707445786394	0.0	0.8201446907887596	-0.8521918056533363	0.0	0.8247494556465285	-0.6548457132577091	0.0	0.854941202321083	-0.7441725998031743	0.0	0.8386592264403633	-0.8365225830830533	0.0	0.8730200283405954	-0.8488438880351977	0.0	0.8650065412853583	-0.8425632584555214	0.0	0.8272633791483723	-0.8479776277419396	0.0	0.853144854215148	-0.5220679708577374	0.0	0.9006192588835025	-0.4725887514313709	0.0	0.8902076220343698	-0.5125006804746932	0.0	0.8443549677249289	-0.5316907376764275	0.0	0.8709991542180459	-0.5756710201244747	0.0	0.9314856960329746	-0.5573400983308919	0.0	0.8408387388459887	-0.529162402800983	0.0	0.8717712989968449	-0.5696662735383641	0.0	0.9295048998355885	-0.554457257755289	0.0
87	2.918238993710691	0.8134173356254387	-0.6286464672468051	0.0	0.8094878088283645	-0.6316392613310008	0.0	0.845477605599919	-0.7204713560674015	0.0	0.8294135614082782	-0.8172043238183434	0.0	0.8640826153255826	-0.8275243381143518	0.0	0.8537044861128615	-0.829966821439934	0.0	0.8206308628588512	-0.8274818905333834	0.0	0.8177907521970494	-0.6304373815164636	0.0	0.8538854627042157	-0.7182609482763976	0.0	0.8390712941217738	-0.8100181678409122	0.0	0.874885407186935	-0.8230456009510928	0.0	0.8677622946015583	-0.8178102407819305	0.0	0.8281911278459921	-0.8218507377015127	0.0	0.8461597055047451	-0.4999798334437029	0.0	0.8954080448697737	-0.4511149892974124	0.0	0.8832531075228901	-0.4905454958065609	0.0	0.8385019575179368	-0.5092629325369629	0.0	0.8698199058941974	-0.5548443854234033	0.0	0.9289274946811961	-0.5318775195641829	0.0	0.8347446889586555	-0.5062156071737841	0.0	0.8696733600000269	-0.5460852190087784	0.0	0.9262119835760828	-0.5275971448793094	0.0
88	2.9517819706498947	0.8056146023053145	-0.5978490945524895	0.0	0.8011188153339395	-0.6005725236412683	0.0	0.8437335559916618	-0.6882105944862774	0.0	0.8299642910629756	-0.7857421582378838	0.0	0.8666023331717128	-0.7971447688592892	0.0	0.8576493296048217	-0.8001555698348699	0.0	0.8216353395542241	-0.797495082066954	0.0	0.809797106739388	-0.5989381235787897	0.0	0.8514311505481572	-0.6859702040991532	0.0	0.8390979453318098	-0.7781930186218665	0.0	0.8769491034186462	-0.7916857728067012	0.0	0.87093075145774	-0.7875001874120338	0.0	0.8284661072103471	-0.7904198886884667	0.0	0.8406289265154339	-0.47157047676346137	0.0	0.892871259557851	-0.4242280096015004	0.0	0.8779500546445693	-0.46261468634698955	0.0	0.8340048518378926	-0.48016050914048425	0.0	0.867561476913779	-0.528270370301362	0.0	0.9252232733809742	-0.5042755225492872	0.0	0.8302946534082758	-0.4767547298177588	0.0	0.8672227245653719	-0.5177537716274818	0.0	0.9225537379682532	-0.497904807632915	0.0
89	2.985324947589098	0.7975605738195258	-0.5639147561357181	0.0	0.7927711593461165	-0.566338463389789	0.0	0.8414208848786618	-0.6534225242659566	0.0	0.8304642779266848	-0.7521925892337704	0.0	0.8689779508965089	-0.7646066482144815	0.0	0.8608510075773146	-0.7680926762982166	0.0	0.8226825071477984	-0.7655961028028362	0.0	0.8012293090125004	-0.5642807324182589	0.0	0.8477543872019975	-0.6510920317807454	0.0	0.8386342542876897	-0.7444923253671389	0.0	0.8786758646628463	-0.7582830864103266	0.0	0.8736573792362937	-0.7548896510019535	0.0	0.8282688108406631	-0.7572980001632392	0.0	0.8357367330479328	-0.44008549691662424	0.0	0.8912118403671473	-0.394140778022017	0.0	0.8733763423003758	-0.43131293206559934	0.0	0.8300089193736506	-0.4478388221296726	0.0	0.8644389219529902	-0.4980865435689126	0.0	0.9209571137704724	-0.47560481310242475	0.0	0.8265325357137049	-0.44438615646384	0.0	0.864065950911195	-0.48742586976357205	0.0	0.9184768486806112	-0.46736872981347616	0.0
90	3.018867924528301	0.7896932303836635	-0.5300851926885871	0.0	0.784801767926344	-0.5321250792220849	0.0	0.838263610313398	-0.6191980162476255	0.0	0.8301101811405811	-0.7192898063063408	0.0	0.8699862439156664	-0.7326374458417575	0.0	0.862093445680759	-0.7364137094378497	0.0	0.8229054481942418	-0.7339602461239508	0.0	0.792643945023068	-0.5297850188686828	0.0	0.8432098040966098	-0.6167191102599111	0.0	0.8373229892988023	-0.7116037050493674	0.0	0.8790791666069145	-0.7257096449507187	0.0	0.8747959464589691	-0.7228632694356948	0.0	0.8273659447456725	-0.7249861034729613	0.0	0.8310180351686831	-0.40847239203851365	0.0	0.8890640517931163	-0.3631378655166576	0.0	0.8689716947493359	-0.39930713034573334	0.0	0.8258832744139677	-0.4153927310944435	0.0	0.8608136187000497	-0.4662066036241858	0.0	0.9164286488588672	-0.4466166274525905	0.0	0.8229272731247204	-0.41232086866916845	0.0	0.8603286528383222	-0.4571424865179743	0.0	0.9142339377905145	-0.4377195348806279	0.0
91	3.0524109014675047	0.7823281350665351	-0.4986483032981378	0.0	0.7773395625298397	-0.5001876248840583	0.0	0.8345262938776699	-0.5872821447050991	0.0	0.8281899480043204	-0.6885003599705324	0.0	0.8686728134893662	-0.7030701208746285	0.0	0.8606578889435234	-0.7068839848601138	0.0	0.8214390246521756	-0.7037161645274119	0.0	0.7846107040755198	-0.49781821238295715	0.0	0.8380205929429719	-0.5849611450529759	0.0	0.8344001786414706	-0.6813239026742032	0.0	0.876938760924312	-0.6962312127589504	0.0	0.8731805767560352	-0.69372257483562	0.0	0.8249019517922599	-0.6950027541322745	0.0	0.8262765737766646	-0.37884848431126883	0.0	0.8858515633645951	-0.33309627398879443	0.0	0.8645706296108632	-0.3688295764510303	0.0	0.8211996031122283	-0.38489907696754483	0.0	0.8569329594059241	-0.4338228056107867	0.0	0.9115270942231545	-0.41763740237374236	0.0	0.8193221460009195	-0.3828254831442521	0.0	0.8563190899638318	-0.42831184620900253	0.0	0.9101155758206704	-0.4103905359210685	0.0
